# xmcd
#
# Track frame offsets: 
#        150
#        24047
#        48878
#        74110
#        103094
#        121834
#        142288
#        165437
#        192595
#        213709
#        234666
#        253110
#        278001
#
# Disc length: 3866 seconds
#
# Revision: 0
# Processed by: cddbd v1.5.2PL0 Copyright (c) Steve Scherf et al.
# Submitted via: ExactAudioCopy v1.0b3
#
DISCID=c40f180d
DTITLE=Thanh Thuy - Tran Luy
DYEAR=1900
DGENRE=
TTITLE0=Tran luy
TTITLE1=Chieu ve mien dat la
TTITLE2=Tinh que huong
TTITLE3=Co do toi nho
TTITLE4=Nguoi con do ta con day
TTITLE5=Ha buon
TTITLE6=Ai bieu anh lam thinh
TTITLE7=Chuyen tinh khong suy tu
TTITLE8=Xa dau tinh hong
TTITLE9=Loi cam on cuoi cung
TTITLE10=Dem gia tu
TTITLE11=Tan phai
TTITLE12=Loi tam su
EXTD=
EXTT0=
EXTT1=
EXTT2=
EXTT3=
EXTT4=
EXTT5=
EXTT6=
EXTT7=
EXTT8=
EXTT9=
EXTT10=
EXTT11=
EXTT12=
PLAYORDER=
